<svg xmlns="http://www.w3.org/2000/svg" width="37" height="35" viewBox="0 0 42 40" fill="none">
  <path d="M26.52 0.142499C27.4585 0.14702 28.3746 0.429773 29.1525 0.954999C29.9932 1.56066 30.5982 2.43873 30.8648 3.44C31.1315 4.44127 31.0432 5.50396 30.615 6.4475L27.4625 13.5L36.53 13.5C37.2745 13.4861 38.0104 13.6606 38.6695 14.0072C39.3286 14.3537 39.8894 14.8612 40.3 15.4825C40.7128 16.1123 40.9566 16.8379 41.0078 17.5892C41.059 18.3406 40.916 19.0924 40.5925 19.7725C38.415 24.485 34.515 33 33.215 36.575C32.8972 37.4315 32.3255 38.1706 31.5762 38.6933C30.827 39.216 29.936 39.4975 29.0225 39.5L4.48496 39.5C3.28952 39.4829 2.14885 38.996 1.30956 38.1446C0.47028 37.2931 -0.000160511 36.1456 -3.85447e-05 34.95L-3.9542e-05 23.5425C-3.9646e-05 22.353 0.472487 21.2122 1.31359 20.3711C2.15468 19.53 3.29546 19.0575 4.48496 19.0575L23.465 1.3125C24.3047 0.559915 25.3924 0.14335 26.52 0.142499Z" fill="#EEEEEE"/>
</svg>