<svg xmlns="http://www.w3.org/2000/svg" width="3" height="20" viewBox="0 0 5 24" fill="none">
  <path d="M2.5 24C1.8125 24 1.22403 23.7575 0.734584 23.2724C0.244861 22.7876 0 22.2048 0 21.5238C0 20.8429 0.244861 20.2599 0.734584 19.7748C1.22403 19.29 1.8125 19.0476 2.5 19.0476C3.1875 19.0476 3.77597 19.29 4.26542 19.7748C4.75514 20.2599 5 20.8429 5 21.5238C5 22.2048 4.75514 22.7876 4.26542 23.2724C3.77597 23.7575 3.1875 24 2.5 24ZM2.5 14.4762C1.8125 14.4762 1.22403 14.2337 0.734584 13.7486C0.244861 13.2638 0 12.681 0 12C0 11.319 0.244861 10.7362 0.734584 10.2514C1.22403 9.76635 1.8125 9.52382 2.5 9.52382C3.1875 9.52382 3.77597 9.76635 4.26542 10.2514C4.75514 10.7362 5 11.319 5 12C5 12.681 4.75514 13.2638 4.26542 13.7486C3.77597 14.2337 3.1875 14.4762 2.5 14.4762ZM2.5 4.95237C1.8125 4.95237 1.22403 4.70998 0.734584 4.2252C0.244861 3.74014 0 3.15713 0 2.47618C0 1.79523 0.244861 1.21237 0.734584 0.727586C1.22403 0.242529 1.8125 0 2.5 0C3.1875 0 3.77597 0.242529 4.26542 0.727586C4.75514 1.21237 5 1.79523 5 2.47618C5 3.15713 4.75514 3.74014 4.26542 4.2252C3.77597 4.70998 3.1875 4.95237 2.5 4.95237Z" fill="#979797"/>
</svg>