<svg xmlns="http://www.w3.org/2000/svg" width="34" height="34" viewBox="0 0 45 35" fill="none">
  <path d="M22.5 41L19.2375 38.0954C15.45 34.7066 12.3187 31.7834 9.84375 29.3256C7.36875 26.8678 5.4 24.6614 3.9375 22.7064C2.475 20.7514 1.45312 18.9546 0.871875 17.3161C0.290625 15.6776 0 14.0018 0 12.2888C0 8.78837 1.18125 5.86512 3.54375 3.51907C5.90625 1.17302 8.85 0 12.375 0C14.325 0 16.1812 0.409628 17.9438 1.22888C19.7062 2.04814 21.225 3.20254 22.5 4.6921C23.775 3.20254 25.2937 2.04814 27.0562 1.22888C28.8187 0.409628 30.675 0 32.625 0C36.15 0 39.0938 1.17302 41.4562 3.51907C43.8187 5.86512 45 8.78837 45 12.2888C45 14.0018 44.7094 15.6776 44.1281 17.3161C43.5469 18.9546 42.525 20.7514 41.0625 22.7064C39.6 24.6614 37.6312 26.8678 35.1562 29.3256C32.6812 31.7834 29.55 34.7066 25.7625 38.0954L22.5 41Z" fill="white"/>
</svg>