<svg xmlns="http://www.w3.org/2000/svg" width="24" height="23" viewBox="0 0 24 23" fill="none">
  <path d="M17.4579 3.47771L17.4567 3.4803L15.6122 7.60169L15.297 8.30595L16.0686 8.30595L21.374 8.30594L21.374 8.30603L21.3833 8.30586C21.7349 8.29932 22.0823 8.38158 22.3934 8.54498C22.7042 8.70823 22.9687 8.94716 23.1624 9.23956C23.3565 9.53568 23.4711 9.87664 23.4952 10.2297C23.5193 10.583 23.452 10.9366 23.2996 11.2565L23.2996 11.2565L23.2973 11.2616C22.0282 14.0047 19.7354 19.003 18.9651 21.1181C18.8146 21.5224 18.5441 21.8714 18.1897 22.1183C17.835 22.3655 17.4132 22.4987 16.9806 22.5L2.62797 22.5C2.06091 22.491 1.52013 22.26 1.12213 21.8567C0.72336 21.4526 0.499945 20.9082 0.500002 20.3411L0.500002 20.341L0.500001 13.6747C0.500001 13.1123 0.723653 12.5729 1.12195 12.1751C1.52027 11.7773 2.06064 11.5537 2.62421 11.5537L2.82136 11.5537L2.96546 11.4191L14.0668 1.05297C14.4656 0.6976 14.9813 0.500741 15.5161 0.500001C15.9634 0.502427 16.4001 0.636416 16.7715 0.885096C17.1665 1.17144 17.4506 1.58487 17.5762 2.05582C17.7024 2.52919 17.6606 3.0316 17.4579 3.47771Z" stroke="black"/>
</svg>