<svg xmlns="http://www.w3.org/2000/svg" width="24" height="23" viewBox="0 0 24 23" fill="none">
  <path d="M15.5171 -1.16575e-06C16.0662 0.00264046 16.6023 0.16788 17.0574 0.474814C17.5493 0.828753 17.9033 1.34189 18.0593 1.92702C18.2153 2.51214 18.1637 3.13317 17.9131 3.68456L16.0686 7.80595L21.374 7.80594C21.8097 7.79784 22.2403 7.89978 22.6259 8.10232C23.0115 8.30486 23.3397 8.60143 23.5799 8.96449C23.8215 9.33257 23.9641 9.75655 23.9941 10.1956C24.024 10.6347 23.9403 11.0741 23.751 11.4715C22.477 14.2254 20.195 19.2015 19.4344 21.2907C19.2485 21.7912 18.9139 22.2231 18.4756 22.5286C18.0372 22.834 17.5159 22.9985 16.9813 23L2.62421 23C1.92476 22.99 1.25733 22.7055 0.766262 22.2079C0.27519 21.7103 -6.88359e-05 21.0397 1.67489e-06 20.341L1.0921e-06 13.6747C1.03133e-06 12.9795 0.276481 12.3129 0.768615 11.8213C1.26075 11.3298 1.92823 11.0537 2.62421 11.0537L13.7296 0.683732C14.2209 0.243932 14.8573 0.00049671 15.5171 -1.16575e-06Z" fill="#B21F7C"/>
</svg>